<svg xmlns="http://www.w3.org/2000/svg" width="400" height="400">
  <defs>
    <symbol id="matrix"  viewBox="33.1 0.01 445.8 512">
<path d="M465.305 499.705v-487.9h-35V.105h48.6v511.9h-48.6v-11.7zm-301.9-332.7v24.6h.7c6.2-9 14.3-16.5 23.8-21.9 9.3-5.2 20-7.8 31.8-7.8 11.5 0 22.1 2.2 31.5 6.7 9.5 4.5 16.8 12.3 21.8 23.7 5.4-8 12.7-15.1 22.1-21.1 9.3-6.1 20.3-9.2 33-9.2 9.6 0 18.6 1.2 26.7 3.5 8.2 2.4 15.3 6.1 21.1 11.3 5.9 5.2 10.4 11.9 13.7 20.3s4.9 18.4 4.9 30.2v122.1h-50.1v-103.3c0-6.1-.2-11.9-.7-17.3-.3-4.9-1.6-9.7-3.9-14.1-2.1-4-5.4-7.3-9.3-9.5-4.1-2.3-9.7-3.5-16.8-3.5-7 0-12.7 1.4-17.1 4-4.4 2.7-7.8 6.2-10.2 10.6-2.5 4.6-4.2 9.6-4.9 14.8q-1.2 8.4-1.2 16.8v101.6h-50.1v-102.4c0-5.4-.1-10.8-.3-16-.2-5-1.2-10-3-14.7-1.7-4.4-4.8-8.2-8.8-10.8-4.1-2.7-10.2-4-18.2-4-3.2.1-6.3.7-9.3 1.6-4.1 1.2-8 3.2-11.3 6-3.6 2.9-6.8 7.2-9.3 12.7-2.6 5.5-3.9 12.8-3.9 21.8v105.9h-50.2v-182.4zm-116.7-154.7v487.9h35v11.7h-48.6V.005h48.5v11.7z" style="fill:#fff"/>
    </symbol>
    <symbol id="telegram" viewBox="0 0 240 240">
<defs><linearGradient id="linear-gradient" x1="120" y1="240" x2="120" gradientUnits="userSpaceOnUse"><stop offset="0" stop-color="#1d93d2"/><stop offset="1" stop-color="#38b0e3"/></linearGradient></defs><title>Telegram_logo</title><circle cx="120" cy="120" r="120" fill="url(#linear-gradient)"/><path d="M81.229,128.772l14.237,39.406s1.78,3.687,3.686,3.687,30.255-29.492,30.255-29.492l31.525-60.89L81.737,118.6Z" fill="#c8daea"/><path d="M100.106,138.878l-2.733,29.046s-1.144,8.9,7.754,0,17.415-15.763,17.415-15.763" fill="#a9c6d8"/><path d="M81.486,130.178,52.2,120.636s-3.5-1.42-2.373-4.64c.232-.664.7-1.229,2.1-2.2,6.489-4.523,120.106-45.36,120.106-45.36s3.208-1.081,5.1-.362a2.766,2.766,0,0,1,1.885,2.055,9.357,9.357,0,0,1,.254,2.585c-.009.752-.1,1.449-.169,2.542-.692,11.165-21.4,94.493-21.4,94.493s-1.239,4.876-5.678,5.043A8.13,8.13,0,0,1,146.1,172.5c-8.711-7.493-38.819-27.727-45.472-32.177a1.27,1.27,0,0,1-.546-.9c-.093-.469.417-1.05.417-1.05s52.426-46.6,53.821-51.492c.108-.379-.3-.566-.848-.4-3.482,1.281-63.844,39.4-70.506,43.607A3.21,3.21,0,0,1,81.486,130.178Z" fill="#fff"/>
    </symbol>
  </defs>
  <use href="#matrix"   x="20" y="20" width="360" height="360"/>
  <use href="#telegram" x="300" y="300" width="100" height="100"/>
</svg>
